<svg width="28" height="28" viewBox="0 0 28 28" fill="none" xmlns="http://www.w3.org/2000/svg">
<rect width="28" height="28" rx="8" fill="#36E2B4"/>
<path d="M12.8537 16.1136H15.2401L16.6534 17.946L17.6619 19.1392L20.0838 22.25H17.527L15.8793 20.1619L15.1761 19.1676L12.8537 16.1136ZM20.4318 13.7273C20.4318 15.2945 20.1383 16.6368 19.5511 17.7543C18.9688 18.867 18.1733 19.7192 17.1648 20.3111C16.161 20.9029 15.0223 21.1989 13.7486 21.1989C12.4749 21.1989 11.3338 20.9029 10.3253 20.3111C9.3215 19.7145 8.52604 18.8598 7.93892 17.7472C7.35653 16.6297 7.06534 15.2898 7.06534 13.7273C7.06534 12.16 7.35653 10.8201 7.93892 9.70739C8.52604 8.58996 9.3215 7.73532 10.3253 7.14347C11.3338 6.55161 12.4749 6.25568 13.7486 6.25568C15.0223 6.25568 16.161 6.55161 17.1648 7.14347C18.1733 7.73532 18.9688 8.58996 19.5511 9.70739C20.1383 10.8201 20.4318 12.16 20.4318 13.7273ZM17.7827 13.7273C17.7827 12.6241 17.6098 11.6937 17.2642 10.9361C16.9233 10.1738 16.4498 9.59848 15.8438 9.21023C15.2377 8.81723 14.5393 8.62074 13.7486 8.62074C12.9579 8.62074 12.2595 8.81723 11.6534 9.21023C11.0473 9.59848 10.5715 10.1738 10.2259 10.9361C9.88494 11.6937 9.71449 12.6241 9.71449 13.7273C9.71449 14.8305 9.88494 15.7633 10.2259 16.5256C10.5715 17.2831 11.0473 17.8584 11.6534 18.2514C12.2595 18.6397 12.9579 18.8338 13.7486 18.8338C14.5393 18.8338 15.2377 18.6397 15.8438 18.2514C16.4498 17.8584 16.9233 17.2831 17.2642 16.5256C17.6098 15.7633 17.7827 14.8305 17.7827 13.7273Z" fill="black"/>
</svg>
